<?xml version="1.0" standalone="no"?>
<!DOCTYPE svg PUBLIC "-//W3C//DTD SVG 20010904//EN"
 "http://www.w3.org/TR/2001/REC-SVG-20010904/DTD/svg10.dtd">
<svg version="1.0" xmlns="http://www.w3.org/2000/svg"
 width="1200.000000pt" height="799.000000pt" viewBox="0 0 1200.000000 799.000000"
 preserveAspectRatio="xMidYMid meet">

<g transform="translate(0.000000,799.000000) scale(0.100000,-0.100000)"
fill="#000000" stroke="none">
<path d="M0 3995 l0 -3995 6000 0 6000 0 0 3995 0 3995 -6000 0 -6000 0 0
-3995z m6010 2526 c0 -9 -5 -22 -11 -28 -9 -9 -6 -19 10 -39 27 -34 27 -64 1
-71 -11 -3 -20 -12 -20 -19 0 -15 6 -18 52 -28 19 -4 30 -15 34 -31 6 -23 11
-25 68 -25 33 0 66 -4 72 -8 6 -4 21 -26 34 -49 20 -37 29 -43 67 -49 24 -3
62 -19 85 -34 27 -19 47 -26 57 -21 7 5 22 6 33 3 11 -3 29 5 44 19 21 20 24
29 19 64 -8 52 23 93 77 102 34 5 38 3 44 -21 8 -33 34 -48 72 -40 24 5 31 2
36 -14 6 -18 14 -20 63 -17 36 3 67 -2 84 -11 32 -16 125 -19 134 -4 12 19 26
10 41 -25 8 -19 30 -45 49 -57 19 -13 38 -31 41 -41 3 -9 21 -38 41 -63 19
-26 41 -68 49 -94 8 -26 26 -64 40 -85 14 -21 28 -55 31 -74 9 -70 14 -81 43
-96 38 -20 46 -35 75 -150 17 -67 33 -108 54 -134 17 -21 35 -60 41 -87 14
-64 43 -105 96 -137 29 -17 46 -36 50 -54 4 -15 29 -51 55 -80 48 -50 60 -78
38 -85 -5 -2 9 -23 32 -47 35 -38 44 -43 60 -33 15 9 20 8 28 -6 9 -16 13 -15
53 8 39 22 52 24 148 22 118 -3 140 -7 140 -28 0 -29 -43 -135 -94 -236 -95
-183 -108 -206 -125 -225 -9 -10 -20 -26 -24 -35 -3 -9 -24 -29 -47 -43 -59
-37 -142 -122 -180 -183 -32 -52 -53 -67 -30 -20 10 19 10 21 -1 11 -16 -16
-62 -17 -109 -2 -19 5 -93 9 -165 7 -71 -1 -167 -2 -212 0 -54 1 -83 -2 -83
-9 0 -7 -32 -10 -93 -8 -92 3 -123 -3 -111 -22 12 -21 -19 -39 -67 -39 -27 0
-49 -4 -49 -10 0 -13 -77 -13 -82 0 -2 5 -22 1 -44 -9 -23 -11 -76 -22 -118
-26 -72 -7 -103 -20 -53 -22 12 -1 49 -5 81 -9 44 -5 57 -4 52 4 -5 9 6 12 38
12 l46 0 0 -39 c0 -33 -4 -40 -22 -43 -48 -8 249 -21 499 -22 145 -1 263 -5
263 -9 0 -5 6 -5 13 0 30 19 36 12 30 -35 -3 -26 -10 -55 -14 -64 -11 -21 -11
-37 -1 -20 6 8 15 0 31 -28 21 -38 21 -41 6 -92 -22 -75 -19 -100 15 -133 28
-27 30 -33 30 -107 0 -42 7 -111 16 -151 l16 -74 -24 -39 c-25 -39 -58 -73
-58 -60 0 4 -7 0 -16 -8 -17 -17 -39 -22 -29 -7 3 5 1 12 -5 16 -5 3 -10 -3
-10 -13 0 -24 -16 -37 -55 -46 -22 -5 -26 -4 -15 4 8 5 22 10 31 10 9 0 19 6
22 14 5 11 0 13 -25 6 -16 -5 -36 -14 -44 -21 -11 -9 -14 -8 -14 6 0 13 -4 15
-17 9 -10 -4 -52 -10 -93 -11 -41 -2 -86 -9 -99 -16 -19 -9 -25 -9 -28 1 -6
16 -106 16 -136 1 -16 -9 -22 -9 -25 0 -5 14 -82 15 -82 0 0 -6 -8 -8 -19 -4
-10 3 -24 -1 -31 -10 -10 -12 -35 -15 -110 -15 -78 0 -102 -4 -121 -18 -13
-10 -39 -19 -57 -20 -19 -2 -41 -9 -49 -17 -21 -22 -90 -20 -97 3 -2 9 -2 -23
1 -73 3 -52 12 -103 21 -120 9 -16 18 -51 22 -76 6 -43 5 -45 -16 -41 -21 4
-44 39 -44 67 0 8 -8 15 -18 15 -11 0 -24 10 -30 23 -9 20 -11 17 -11 -20 -1
-24 4 -43 9 -43 6 0 10 -9 10 -20 0 -17 -7 -20 -50 -20 -45 0 -50 2 -50 23 -1
60 -20 201 -30 211 -7 7 -10 6 -10 -4 0 -7 -3 -10 -7 -6 -4 4 -6 27 -4 51 2
29 -2 45 -9 45 -8 0 -10 12 -5 40 4 26 3 40 -4 40 -6 0 -11 -18 -11 -40 l0
-40 -40 0 c-25 0 -40 5 -40 13 0 6 -5 4 -11 -5 -15 -27 -25 -22 -38 23 -7 23
-14 39 -16 37 -9 -8 19 -79 37 -95 18 -16 18 -16 12 0 -3 9 -1 17 5 17 5 0 9
-13 8 -29 -2 -28 -3 -29 -21 -13 -24 23 -52 79 -60 124 -7 36 0 58 41 132 8
16 17 54 20 84 4 60 16 90 45 110 22 16 23 62 4 143 -12 50 -12 59 4 89 20 39
18 49 -23 107 -16 23 -30 54 -32 70 -4 50 -27 101 -67 145 -15 17 -28 34 -28
37 0 4 -10 17 -22 31 -13 14 -32 42 -43 63 -11 20 -23 37 -27 37 -17 0 -6 38
17 60 18 17 25 34 25 60 0 21 7 57 15 80 8 23 15 53 15 65 0 28 -75 99 -97 91
-8 -3 -32 -9 -54 -12 -35 -6 -42 -3 -69 26 -16 18 -30 38 -30 45 0 30 -43 45
-127 45 -70 0 -91 -4 -133 -26 -28 -14 -57 -23 -66 -20 -8 3 -32 -1 -52 -10
-28 -13 -66 -16 -152 -15 -103 1 -137 -3 -205 -24 -14 -4 -31 4 -60 31 -22 20
-67 54 -101 75 -33 21 -77 57 -98 80 -35 37 -38 44 -32 80 6 39 4 42 -49 94
-30 30 -55 60 -55 67 0 8 -11 14 -27 13 -25 0 -29 5 -40 45 -6 25 -12 65 -12
89 -1 32 -8 52 -23 69 l-23 24 30 21 c71 52 78 79 54 201 -9 43 -9 60 0 69 15
15 14 42 -4 57 -29 24 -16 89 27 137 14 15 19 31 16 53 -4 25 0 35 22 50 20
14 29 31 33 62 4 33 14 50 41 73 20 17 36 37 36 45 0 27 28 57 58 63 32 6 136
87 152 117 7 13 7 34 0 65 -13 60 3 96 73 162 98 93 114 112 120 141 l6 30 43
-15 c24 -8 75 -17 114 -20 65 -5 72 -4 95 19 14 14 43 28 65 32 21 4 55 19 75
32 40 28 213 60 259 49 54 -14 129 -13 141 1 14 17 39 1 39 -25z m1685 -331
c677 -46 1082 -353 1202 -911 14 -65 18 -128 18 -274 0 -168 -3 -199 -23 -268
-22 -77 -90 -229 -104 -235 -5 -2 -8 -8 -8 -14 0 -16 -58 -88 -117 -145 -67
-65 -191 -153 -258 -183 -48 -22 -49 -23 -25 -32 75 -29 192 -91 245 -131 113
-85 218 -218 285 -362 18 -39 36 -78 42 -87 5 -10 7 -18 4 -18 -2 0 -29 47
-59 103 -110 208 -233 334 -416 428 -33 16 -63 29 -68 28 -20 -5 -63 26 -64
45 0 21 -1 21 -9 1 -6 -13 -9 -15 -9 -5 -1 13 -3 13 -10 1 -8 -12 -16 -13 -45
-4 -26 8 -36 8 -39 -1 -2 -7 -31 -10 -85 -9 l-81 3 -12 -42 c-9 -36 -13 -40
-22 -27 -13 16 -47 22 -47 7 0 -4 -4 -8 -10 -8 -5 0 -10 6 -10 14 0 20 -26 40
-35 26 -5 -8 -11 -8 -21 1 -12 10 -13 9 -8 -5 4 -10 0 -18 -12 -23 -11 -3 -29
-17 -41 -30 -13 -13 -23 -19 -23 -14 0 15 -37 14 -43 -1 -3 -7 -6 -3 -6 8 -1
17 7 23 34 28 34 7 85 57 85 84 0 17 127 149 175 182 44 31 96 111 193 305 75
149 92 199 92 276 l0 61 -67 -5 c-38 -2 -123 -14 -190 -27 l-121 -23 -36 22
c-20 13 -36 28 -36 35 0 6 -22 33 -50 59 -27 26 -50 55 -50 65 -1 24 -29 57
-67 76 -37 18 -78 83 -87 137 -4 20 -19 53 -35 73 -28 35 -61 128 -76 209 -6
38 -20 56 -69 90 -20 14 -26 26 -26 56 0 24 -14 64 -39 112 -21 41 -42 88 -45
105 -4 18 -16 40 -28 50 -11 11 -29 36 -40 57 -10 21 -35 48 -54 59 -33 20
-54 45 -54 67 0 7 53 12 143 14 78 1 158 4 177 5 19 1 103 -3 185 -8z m50
-2130 c-3 -5 -14 -10 -23 -10 -15 0 -15 2 -2 10 20 13 33 13 25 0z m-68 -72
c-3 -8 -6 -5 -6 6 -1 11 2 17 5 13 3 -3 4 -12 1 -19z m102 -55 c-19 -24 -99
-103 -104 -103 -14 0 14 41 53 78 46 42 77 57 51 25z m-3399 -138 l0 -45 -80
0 -80 0 0 -45 0 -45 60 0 60 0 0 -45 0 -45 -60 0 -60 0 0 -85 0 -85 -46 0 -46
0 7 213 c4 116 9 215 12 220 2 4 56 7 119 7 l114 0 0 -45z m776 26 c105 -48
153 -182 104 -290 -22 -47 -19 -61 11 -61 17 0 20 -6 17 -42 -3 -41 -4 -43
-33 -39 -16 1 -43 10 -59 18 -24 13 -35 13 -67 3 -80 -27 -175 8 -225 82 -121
179 60 416 252 329z m254 -130 c0 -143 1 -149 25 -175 30 -32 72 -34 108 -5
26 20 27 22 29 172 l3 152 43 3 42 3 0 -138 c0 -161 -8 -195 -54 -245 -63 -69
-153 -73 -223 -11 -55 50 -57 60 -54 266 l1 127 40 0 40 0 0 -149z m548 107
l-3 -43 -77 -3 -78 -3 0 -39 0 -40 60 0 60 0 0 -46 0 -46 -60 4 -60 3 0 -47 0
-48 80 0 80 0 0 -32 c0 -57 -5 -59 -131 -56 l-114 3 -3 218 -2 217 125 0 126
0 -3 -42z m-2908 -183 l0 -215 -40 0 -40 0 0 209 0 210 28 4 c15 2 33 5 40 6
9 1 12 -48 12 -214z m318 195 c54 -25 62 -45 29 -77 -24 -24 -26 -25 -48 -9
-13 9 -43 16 -68 16 -37 0 -49 -5 -77 -36 -30 -31 -34 -42 -34 -91 0 -49 4
-59 34 -89 26 -26 42 -34 70 -34 44 0 91 22 106 50 10 19 8 20 -45 20 l-55 0
0 40 0 40 99 0 c68 0 101 -4 103 -12 9 -27 -11 -102 -38 -141 -62 -89 -189
-114 -268 -53 -64 49 -90 98 -90 174 -1 165 141 266 282 202z m645 -188 c48
-115 87 -212 87 -215 0 -4 -20 -7 -44 -7 -42 0 -45 2 -56 35 l-12 35 -67 0
c-67 0 -67 0 -84 -35 -15 -31 -21 -35 -57 -35 -22 0 -40 3 -40 8 0 12 175 422
180 422 3 0 44 -94 93 -208z m607 193 c49 -25 70 -61 70 -122 0 -59 -19 -107
-50 -123 -19 -10 -18 -13 20 -76 22 -35 41 -70 43 -76 1 -5 -17 -12 -40 -15
-47 -4 -45 -6 -119 112 l-44 70 0 -87 c0 -84 -1 -88 -24 -94 -59 -14 -61 -10
-64 131 -2 72 0 167 3 213 l7 82 84 0 c56 0 95 -5 114 -15z m210 -195 l0 -210
-46 0 -47 0 7 77 c3 42 6 136 6 210 l0 133 40 0 40 0 0 -210z m-1989 187 c38
-29 52 -66 45 -117 -4 -32 -3 -50 4 -50 18 0 50 -64 50 -100 0 -51 -29 -102
-70 -122 -25 -13 -59 -18 -117 -18 l-83 0 0 210 0 210 78 0 c45 -1 84 -6 93
-13z m4972 -57 c5 -20 27 -28 27 -10 0 6 4 10 9 10 13 0 71 -59 71 -73 0 -6
20 8 44 32 25 24 50 41 58 38 9 -4 7 -6 -4 -6 -25 -1 -23 -31 2 -31 13 0 26
-12 36 -34 12 -24 27 -37 56 -47 21 -7 42 -17 46 -23 9 -14 58 -33 144 -56
114 -30 128 -39 128 -82 0 -27 4 -38 15 -38 23 0 18 -16 -15 -43 -18 -15 -30
-35 -30 -49 0 -39 -51 -84 -116 -104 -32 -10 -66 -24 -75 -31 -8 -7 -25 -13
-36 -13 -35 0 -115 -41 -120 -61 -3 -10 -11 -19 -18 -19 -8 0 -21 -7 -30 -16
-14 -14 -18 -15 -33 -2 -30 26 -51 29 -62 8 -6 -11 -17 -20 -24 -20 -8 0 -18
-12 -24 -28 -9 -25 -13 -27 -56 -24 -41 4 -46 7 -46 28 0 13 -4 24 -9 24 -14
0 -32 -26 -23 -35 4 -5 -1 -5 -10 -2 -10 4 -18 3 -18 -2 0 -5 -27 -19 -60 -31
-43 -16 -65 -31 -78 -52 -17 -29 -128 -105 -138 -95 -3 3 24 27 60 54 36 26
69 58 75 70 6 14 37 35 77 53 72 32 99 56 120 108 13 28 12 41 -2 100 -8 37
-15 104 -15 150 2 81 1 83 -30 112 -29 26 -31 33 -27 73 3 24 13 59 22 78 16
32 16 34 -4 61 -17 23 -18 28 -5 28 8 0 15 -6 15 -13 0 -7 9 -20 20 -30 24
-21 25 -15 3 21 -10 17 -11 22 -3 15 21 -19 51 -16 57 7 3 11 9 20 13 20 4 0
10 -9 13 -20z m-4103 -165 l0 -35 -100 0 -100 0 0 35 0 35 100 0 100 0 0 -35z
m-725 -360 c42 -31 53 -52 36 -68 -9 -9 -16 -7 -29 10 -59 76 -238 65 -272
-17 -29 -69 12 -106 149 -135 134 -28 181 -67 181 -150 0 -85 -59 -135 -170
-143 -78 -5 -155 22 -195 70 -29 35 -31 44 -9 52 10 4 23 -3 36 -19 82 -105
298 -77 298 38 0 63 -29 84 -164 116 -48 12 -101 29 -117 38 -40 24 -62 74
-54 122 13 80 90 124 202 118 60 -3 78 -9 108 -32z m1595 -240 c0 -258 -1
-265 -20 -265 -16 0 -20 7 -20 36 l0 37 -20 -26 c-30 -37 -99 -61 -155 -53
-53 8 -111 53 -131 103 -31 72 -11 179 44 236 55 57 165 60 227 5 l35 -30 0
111 c0 104 1 111 20 111 19 0 20 -7 20 -265z m287 239 c8 -21 -19 -46 -40 -38
-17 6 -23 35 -10 47 12 13 44 7 50 -9z m-1517 -69 l0 -54 57 -3 c46 -2 59 -7
61 -20 3 -16 -5 -18 -57 -18 l-61 0 0 -134 c0 -159 6 -171 77 -163 37 4 43 2
43 -14 0 -22 -56 -35 -97 -22 -49 16 -63 61 -63 206 l0 127 -35 0 c-28 0 -35
4 -35 20 0 16 7 20 35 20 l35 0 0 48 c0 51 5 62 27 62 9 0 13 -16 13 -55z
m370 -182 c0 -157 12 -190 78 -213 37 -13 47 -13 84 0 67 24 82 60 87 208 2
96 6 122 17 122 11 0 14 -33 14 -185 0 -158 -2 -185 -15 -185 -9 0 -15 9 -15
25 0 30 -10 32 -32 6 -25 -29 -90 -44 -135 -32 -87 24 -114 67 -121 197 -6
112 4 184 24 184 11 0 14 -23 14 -127z m1605 116 c110 -31 165 -172 110 -280
-52 -100 -183 -128 -268 -58 -51 42 -69 81 -69 149 0 94 41 158 119 185 47 17
58 18 108 4z m550 0 c48 -12 84 -42 65 -54 -7 -4 -17 -2 -23 5 -9 10 -9 11 3
5 8 -5 12 -5 8 0 -11 12 -111 19 -162 11 -23 -3 -56 -42 -56 -66 0 -29 33 -49
118 -68 105 -25 135 -44 130 -82 -2 -16 -1 -27 4 -24 4 3 8 -3 8 -12 0 -22
-47 -84 -63 -84 -7 0 -6 4 3 10 11 8 7 9 -15 4 -37 -8 -44 -14 -19 -15 12 0 8
-4 -11 -10 -31 -9 -115 -2 -115 10 0 4 -15 13 -34 19 -36 13 -53 39 -37 55 6
6 21 1 40 -16 52 -43 159 -48 194 -9 24 27 31 78 12 86 -9 3 -13 11 -9 17 4 8
3 9 -5 5 -7 -4 -20 -5 -29 -1 -9 4 -34 9 -56 11 -21 2 -43 7 -50 11 -11 8 -16
9 -35 12 -6 0 -21 12 -35 25 -51 46 -21 136 51 151 15 4 33 8 38 10 19 6 36 5
80 -6z m-1015 -116 c0 -164 -9 -253 -26 -253 -11 0 -14 36 -14 185 0 178 1
185 20 185 19 0 20 -7 20 -117z m1315 -113 c-3 -5 -1 -19 5 -31 7 -11 9 -23 6
-26 -8 -8 -27 47 -20 58 3 5 7 9 10 9 3 0 2 -4 -1 -10z m50 0 c-3 -5 -14 -10
-23 -9 -14 0 -13 2 3 9 27 11 27 11 20 0z m8 -44 c3 -8 0 -17 -7 -19 -10 -4
-12 1 -9 14 6 23 9 24 16 5z m-19 -72 c3 -8 2 -12 -4 -9 -6 3 -10 10 -10 16 0
14 7 11 14 -7z m33 -156 c-3 -7 -5 -2 -5 12 0 14 2 19 5 13 2 -7 2 -19 0 -25z
m69 -5 l-4 -38 44 4 c42 3 44 5 44 35 l1 31 14 -25 c18 -32 18 -40 1 -40 -8 0
-21 -6 -28 -13 -7 -7 -22 -16 -32 -20 -18 -7 -18 -9 5 -33 l23 -25 -41 -39
-41 -40 -7 46 c-5 35 -3 50 10 64 11 12 13 20 6 25 -18 11 -13 105 5 105 2 0
2 -17 0 -37z m1114 -43 c-13 -10 -41 -24 -62 -31 -21 -7 -43 -18 -49 -26 -16
-18 -30 -16 -22 3 6 16 144 85 153 77 3 -2 -6 -13 -20 -23z m-1163 -22 c-3 -8
-6 -5 -6 6 -1 11 2 17 5 13 3 -3 4 -12 1 -19z m33 -8 c0 -5 -4 -10 -10 -10 -5
0 -10 5 -10 10 0 6 5 10 10 10 6 0 10 -4 10 -10z m-17 -94 c3 -30 1 -43 -4
-35 -5 8 -8 34 -8 59 1 53 6 44 12 -24z m33 -94 c-4 -3 -11 0 -16 8 -15 24
-11 33 6 15 9 -9 13 -19 10 -23z m961 -4 c-3 -8 -6 -5 -6 6 -1 11 2 17 5 13 3
-3 4 -12 1 -19z m-877 -31 c0 -4 -6 -10 -14 -13 -11 -4 -11 -10 -2 -29 6 -13
15 -20 21 -16 17 13 75 21 75 11 0 -6 -15 -10 -33 -10 -18 0 -38 -5 -44 -11
-12 -12 -37 -3 -28 11 3 5 -9 18 -26 31 -23 16 -27 24 -18 30 16 10 69 7 69
-4z m855 -17 c-10 -11 -26 -22 -36 -25 -10 -3 -21 -16 -25 -28 -9 -30 -64
-109 -85 -125 -27 -19 -58 -54 -77 -87 -6 -11 -12 -14 -12 -7 0 19 30 63 75
107 42 41 95 116 95 135 0 11 72 60 79 54 2 -2 -4 -13 -14 -24z m-835 -116 c0
-8 -6 -11 -15 -8 -8 4 -13 10 -10 14 3 5 1 11 -5 15 -5 3 -10 11 -10 17 0 6 9
3 20 -7 11 -10 20 -24 20 -31z m10 -33 c-15 -28 -13 -128 3 -134 7 -3 5 -6 -5
-6 -16 -1 -18 9 -18 67 0 40 5 73 12 80 17 17 20 15 8 -7z m11 -34 c-10 -9
-11 -8 -5 6 3 10 9 15 12 12 3 -3 0 -11 -7 -18z"/>
<path d="M6608 3943 c23 -9 12 -23 -18 -23 -16 0 -30 -4 -30 -10 0 -6 33 -10
80 -10 64 0 80 3 80 15 0 11 -11 15 -40 15 -22 0 -40 5 -40 10 0 6 -10 10 -22
9 -13 0 -17 -3 -10 -6z"/>
<path d="M7523 3831 c0 -31 1 -32 14 -16 7 11 13 26 12 34 0 11 -3 10 -8 -4
l-8 -20 -5 20 c-3 11 -5 5 -5 -14z"/>
<path d="M6088 3063 c7 -3 16 -2 19 1 4 3 -2 6 -13 5 -11 0 -14 -3 -6 -6z"/>
<path d="M6129 3053 c-13 -16 -12 -17 4 -4 9 7 17 15 17 17 0 8 -8 3 -21 -13z"/>
<path d="M6147 3033 c-2 -5 0 -19 4 -33 7 -23 7 -22 6 8 -1 33 -3 37 -10 25z"/>
<path d="M6132 2980 c0 -14 2 -19 5 -12 2 6 2 18 0 25 -3 6 -5 1 -5 -13z"/>
<path d="M4990 3712 c-35 -35 -40 -45 -40 -87 0 -74 50 -135 110 -135 19 0 20
2 10 15 -7 8 -21 15 -31 15 -15 0 -19 7 -19 33 0 17 4 38 9 46 13 20 54 7 96
-30 19 -17 39 -28 44 -24 19 11 29 73 19 114 -14 56 -47 83 -108 89 -48 4 -52
3 -90 -36z"/>
<path d="M3901 3589 c-6 -18 -11 -34 -11 -35 0 -2 14 -4 31 -4 26 0 30 3 24
18 -4 9 -10 25 -12 35 -8 26 -20 21 -32 -14z"/>
<path d="M4500 3691 l0 -61 39 0 c30 0 44 6 55 22 33 46 12 84 -51 94 l-43 7
0 -62z"/>
<path d="M2750 3705 c0 -34 2 -36 28 -33 23 3 27 8 27 33 0 25 -4 30 -27 33
-26 3 -28 1 -28 -33z"/>
<path d="M2750 3540 l0 -50 43 0 c48 0 67 13 67 46 0 29 -36 54 -77 54 -33 0
-33 0 -33 -50z"/>
<path d="M4330 3042 c-47 -23 -73 -71 -73 -135 -1 -100 47 -152 143 -152 51 0
63 4 89 29 39 37 55 86 48 147 -7 60 -21 82 -68 108 -45 26 -93 27 -139 3z"/>
<path d="M5210 3041 c-50 -27 -73 -62 -78 -124 -5 -60 9 -96 53 -137 23 -21
36 -25 91 -25 60 0 66 2 100 37 46 45 57 112 30 183 -29 74 -122 106 -196 66z"/>
<path d="M6345 2280 c3 -5 10 -10 16 -10 5 0 9 5 9 10 0 6 -7 10 -16 10 -8 0
-12 -4 -9 -10z"/>
</g>
</svg>
